<svg xmlns="http://www.w3.org/2000/svg" viewBox="0 0 149.44 146.3"><defs><style>.cls-1{font-size:22px;fill:none;font-family:Arial-Black, Arial Black;font-weight:800;}.cls-1,.cls-2,.cls-3,.cls-4,.cls-5{stroke:#000;stroke-miterlimit:10;stroke-width:0.25px;}.cls-2,.cls-3,.cls-4{font-size:12px;fill:#fff;}.cls-2,.cls-3,.cls-4,.cls-5{font-family:Anton-Regular, Anton;}.cls-2{letter-spacing:0.08em;}.cls-3{letter-spacing:0.07em;}.cls-4{letter-spacing:0.05em;}.cls-5{font-size:23px;letter-spacing:0.07em;}</style></defs><g id="Layer_2" data-name="Layer 2"><g id="Layer_1-2" data-name="Layer 1"><path d="M74,.25A72.75,72.75,0,1,1,1.23,73,72.83,72.83,0,0,1,74,.25M74,0a73,73,0,1,0,73,73A73,73,0,0,0,74,0Z"/><text class="cls-1" transform="matrix(0.25, 0.99, -0.89, 0.22, 6.47, 77.88)">H</text><text class="cls-1" transform="matrix(0.56, 0.85, -0.77, 0.51, 14.82, 101.69)">A</text><text class="cls-1" transform="matrix(0.81, 0.62, -0.56, 0.73, 29.82, 120.31)">P</text><text class="cls-1" transform="matrix(0.97, 0.31, -0.28, 0.88, 49.15, 132.39)">P</text><text class="cls-1" transform="matrix(1.02, 0.01, -0.01, 0.92, 71.05, 136.89)">I</text><text class="cls-1" transform="matrix(0.97, -0.31, 0.28, 0.88, 86.1, 135.93)">N</text><text class="cls-1" transform="matrix(0.8, -0.63, 0.57, 0.72, 109.41, 125.86)">E</text><text class="cls-1" transform="matrix(0.56, -0.85, 0.77, 0.5, 125.75, 110.25)">S</text><text class="cls-1" transform="matrix(0.27, -0.98, 0.89, 0.24, 136.31, 90.41)">S</text><text class="cls-2" transform="translate(52.3 65.62) rotate(16.9) scale(1.07 0.92)">g</text><text class="cls-2" transform="translate(39.36 40.84) rotate(14.55) scale(1.07 0.92)">h</text><text class="cls-3" transform="matrix(1.04, 0.26, -0.22, 0.89, 58.95, 45.21)">l</text><text class="cls-3" transform="matrix(1.06, -0.11, 0.1, 0.91, 59.52, 57.2)">d</text><text class="cls-3" transform="translate(39.75 54.85) scale(1.07 0.92)">i</text><text class="cls-3" transform="translate(103.13 51.59) rotate(-14.54) scale(1.07 0.92)">n</text><text class="cls-3" transform="translate(44.11 63.85) scale(1.07 0.92)">n</text><text class="cls-4" transform="translate(86.99 60.13) rotate(-18.33) scale(1.07 0.92)">t</text><text class="cls-4" transform="translate(91.36 63.48) rotate(28.87) scale(1.07 0.92)">o</text><text class="cls-5" transform="translate(44.49 52.85) rotate(11.36) scale(1.07 0.92)">o</text><text class="cls-5" transform="matrix(1.02, -0.33, 0.28, 0.88, 90.6, 56.44)">o</text></g></g></svg>